<svg width="6" height="21" viewBox="0 0 6 21" fill="none" xmlns="http://www.w3.org/2000/svg">
<path d="M2.96256 8.35929C4.15304 8.35929 5.10542 9.3349 5.10542 10.5544C5.10542 11.7739 4.15304 12.7495 2.96256 12.7495C1.77208 12.7495 0.819702 11.7739 0.819702 10.5544C0.819702 9.3349 1.77208 8.35929 2.96256 8.35929ZM0.819702 2.74953C0.819702 3.96905 1.77208 4.94466 2.96256 4.94466C4.15304 4.94466 5.10542 3.96905 5.10542 2.74953C5.10542 1.53002 4.15304 0.554413 2.96256 0.554413C1.77208 0.554413 0.819702 1.53002 0.819702 2.74953ZM0.819702 18.3593C0.819702 19.5788 1.77208 20.5544 2.96256 20.5544C4.15304 20.5544 5.10542 19.5788 5.10542 18.3593C5.10542 17.1398 4.15304 16.1642 2.96256 16.1642C1.77208 16.1642 0.819702 17.1398 0.819702 18.3593Z" fill="#8B83BA"/>
</svg>
